<mxfile host="app.diagrams.net" modified="2024-04-11T13:40:11.003Z" agent="Mozilla/5.0 (X11; Linux x86_64) AppleWebKit/537.36 (KHTML, like Gecko) Chrome/123.0.0.0 Safari/537.36" version="24.2.3" etag="OsaqqwFM8YZ-DnpTNkfU" type="github">
  <diagram name="Page-1" id="OTIJ6Kl0p6fCM9iwQzwe">
    <mxGraphModel>
      <root>
        <mxCell id="0" />
        <mxCell id="1" parent="0" />
      </root>
    </mxGraphModel>
  </diagram>
</mxfile>
